name ./resultDataOpenSim/trcMotMarkerGrf/sub06/grf-13-06.mot
datacolumns 19
datarows 20
range 1.60000000 1.67600000
endheader

                time	     ground_force_vx	     ground_force_vy	     ground_force_vz	     ground_force_px	     ground_force_py	     ground_force_pz	   l_ground_force_vx	   l_ground_force_vy	   l_ground_force_vz	   l_ground_force_px	   l_ground_force_py	   l_ground_force_pz	     ground_torque_x	     ground_torque_y	     ground_torque_z	   l_ground_torque_x	   l_ground_torque_y	   l_ground_torque_z	
          1.60000000	        197.45238399	        639.04651220	        -28.97660641	          0.87361921	          0.00000000	          0.09289583	          0.00000000	          0.00000000	          0.00000000	          0.00000000	          0.00000000	          0.00000000	          0.00000000	          4.01966120	          0.00000000	          0.00000000	          0.00000000	          0.00000000	
          1.60400000	        202.09220156	        620.26999349	        -26.86154546	          0.87316833	          0.00000000	          0.09256921	          0.00000000	          0.00000000	          0.00000000	          0.00000000	          0.00000000	          0.00000000	          0.00000000	          3.81218748	          0.00000000	          0.00000000	          0.00000000	          0.00000000	
          1.60800000	        205.73126200	        598.82159943	        -24.34248984	          0.87261478	          0.00000000	          0.09225479	          0.00000000	          0.00000000	          0.00000000	          0.00000000	          0.00000000	          0.00000000	          0.00000000	          3.60317580	          0.00000000	          0.00000000	          0.00000000	          0.00000000	
          1.61200000	        207.97988020	        574.35309781	        -21.55641409	          0.87202053	          0.00000000	          0.09193859	          0.00000000	          0.00000000	          0.00000000	          0.00000000	          0.00000000	          0.00000000	          0.00000000	          3.40109929	          0.00000000	          0.00000000	          0.00000000	          0.00000000	
          1.61600000	        208.50048523	        546.51442136	        -18.66710964	          0.87142208	          0.00000000	          0.09160173	          0.00000000	          0.00000000	          0.00000000	          0.00000000	          0.00000000	          0.00000000	          0.00000000	          3.20307746	          0.00000000	          0.00000000	          0.00000000	          0.00000000	
          1.62000000	        207.00140635	        514.93152606	        -15.81395126	          0.87080280	          0.00000000	          0.09123968	          0.00000000	          0.00000000	          0.00000000	          0.00000000	          0.00000000	          0.00000000	          0.00000000	          2.99891621	          0.00000000	          0.00000000	          0.00000000	          0.00000000	
          1.62400000	        203.15139155	        479.29402340	        -13.08855304	          0.87017044	          0.00000000	          0.09087823	          0.00000000	          0.00000000	          0.00000000	          0.00000000	          0.00000000	          0.00000000	          0.00000000	          2.77869111	          0.00000000	          0.00000000	          0.00000000	          0.00000000	
          1.62800000	        196.51303919	        439.56843012	        -10.53923585	          0.86957291	          0.00000000	          0.09056343	          0.00000000	          0.00000000	          0.00000000	          0.00000000	          0.00000000	          0.00000000	          0.00000000	          2.54036576	          0.00000000	          0.00000000	          0.00000000	          0.00000000	
          1.63200000	        186.59802831	        396.23106642	         -8.16946558	          0.86912783	          0.00000000	          0.09033191	          0.00000000	          0.00000000	          0.00000000	          0.00000000	          0.00000000	          0.00000000	          0.00000000	          2.29389096	          0.00000000	          0.00000000	          0.00000000	          0.00000000	
          1.63600000	        173.04455694	        350.38818818	         -5.93797919	          0.86903254	          0.00000000	          0.09018642	          0.00000000	          0.00000000	          0.00000000	          0.00000000	          0.00000000	          0.00000000	          0.00000000	          2.05968673	          0.00000000	          0.00000000	          0.00000000	          0.00000000	
          1.64000000	        155.81609078	        303.69613911	         -3.78525897	          0.86953006	          0.00000000	          0.09008398	          0.00000000	          0.00000000	          0.00000000	          0.00000000	          0.00000000	          0.00000000	          0.00000000	          1.86187607	          0.00000000	          0.00000000	          0.00000000	          0.00000000	
          1.64400000	        135.33662354	        258.09028396	         -1.67438411	          0.87093949	          0.00000000	          0.08993242	          0.00000000	          0.00000000	          0.00000000	          0.00000000	          0.00000000	          0.00000000	          0.00000000	          1.71900821	          0.00000000	          0.00000000	          0.00000000	          0.00000000	
          1.64800000	        112.54365377	        215.41964133	          0.38437196	          0.87366950	          0.00000000	          0.08960067	          0.00000000	          0.00000000	          0.00000000	          0.00000000	          0.00000000	          0.00000000	          0.00000000	          1.63618137	          0.00000000	          0.00000000	          0.00000000	          0.00000000	
          1.65200000	         88.83098380	        177.09265468	          2.33369383	          0.87805904	          0.00000000	          0.08892532	          0.00000000	          0.00000000	          0.00000000	          0.00000000	          0.00000000	          0.00000000	          0.00000000	          1.60198809	          0.00000000	          0.00000000	          0.00000000	          0.00000000	
          1.65600000	         65.83131850	        143.82964298	          4.08151399	          0.88415457	          0.00000000	          0.08772449	          0.00000000	          0.00000000	          0.00000000	          0.00000000	          0.00000000	          0.00000000	          0.00000000	          1.59179312	          0.00000000	          0.00000000	          0.00000000	          0.00000000	
          1.66000000	         45.06138929	        115.61261208	          5.51271566	          0.89159199	          0.00000000	          0.08588681	          0.00000000	          0.00000000	          0.00000000	          0.00000000	          0.00000000	          0.00000000	          0.00000000	          1.57625712	          0.00000000	          0.00000000	          0.00000000	          0.00000000	
          1.66400000	         27.57637287	         91.88191213	          6.49792260	          0.89970001	          0.00000000	          0.08350731	          0.00000000	          0.00000000	          0.00000000	          0.00000000	          0.00000000	          0.00000000	          0.00000000	          1.53173443	          0.00000000	          0.00000000	          0.00000000	          0.00000000	
          1.66800000	         13.80928542	         71.91114025	          6.91604182	          0.90786352	          0.00000000	          0.08089012	          0.00000000	          0.00000000	          0.00000000	          0.00000000	          0.00000000	          0.00000000	          0.00000000	          1.44814098	          0.00000000	          0.00000000	          0.00000000	          0.00000000	
          1.67200000	          3.64707760	         55.13674498	          6.70266853	          0.91577682	          0.00000000	          0.07833793	          0.00000000	          0.00000000	          0.00000000	          0.00000000	          0.00000000	          0.00000000	          0.00000000	          1.33077242	          0.00000000	          0.00000000	          0.00000000	          0.00000000	
          1.67600000	         -3.36633610	         41.21753686	          5.89180400	          0.92303750	          0.00000000	          0.07592710	          0.00000000	          0.00000000	          0.00000000	          0.00000000	          0.00000000	          0.00000000	          0.00000000	          1.19540317	          0.00000000	          0.00000000	          0.00000000	          0.00000000	
